<mxfile host="app.diagrams.net" modified="2023-06-08T15:58:02.183Z" agent="Mozilla/5.0 (Windows NT 10.0; Win64; x64) AppleWebKit/537.36 (KHTML, like Gecko) Chrome/114.0.0.0 Safari/537.36" etag="hreTQLSJv1Uzm0QzKulJ" version="21.3.4" type="device">
  <diagram name="Pagina-1" id="DQh6bFEMEt-6OpY86g35">
    <mxGraphModel dx="1687" dy="2001" grid="1" gridSize="10" guides="1" tooltips="1" connect="1" arrows="1" fold="1" page="1" pageScale="1" pageWidth="827" pageHeight="1169" math="0" shadow="0">
      <root>
        <mxCell id="0" />
        <mxCell id="1" parent="0" />
        <mxCell id="dYNqAMyxq_Kde-nmc2GR-1" value="" style="rounded=0;whiteSpace=wrap;html=1;fillColor=none;strokeColor=#b85450;" parent="1" vertex="1">
          <mxGeometry x="530" y="-1084" width="510" height="230" as="geometry" />
        </mxCell>
        <mxCell id="dYNqAMyxq_Kde-nmc2GR-2" value="InterfacciaProfessionista" style="rounded=0;whiteSpace=wrap;html=1;fillColor=#f8cecc;strokeColor=#b85450;" parent="1" vertex="1">
          <mxGeometry x="530" y="-1114" width="150" height="30" as="geometry" />
        </mxCell>
        <mxCell id="dYNqAMyxq_Kde-nmc2GR-16" value="" style="rounded=0;whiteSpace=wrap;html=1;fillColor=none;strokeColor=#b85450;" parent="1" vertex="1">
          <mxGeometry x="280" y="-800" width="980" height="510" as="geometry" />
        </mxCell>
        <mxCell id="dYNqAMyxq_Kde-nmc2GR-17" value="InterfacciaUtenteStandard" style="rounded=0;whiteSpace=wrap;html=1;fillColor=#f8cecc;strokeColor=#b85450;" parent="1" vertex="1">
          <mxGeometry x="283" y="-830" width="150" height="30" as="geometry" />
        </mxCell>
        <mxCell id="dYNqAMyxq_Kde-nmc2GR-18" style="edgeStyle=orthogonalEdgeStyle;rounded=0;orthogonalLoop=1;jettySize=auto;html=1;exitX=1;exitY=0.5;exitDx=0;exitDy=0;entryX=0.005;entryY=0.348;entryDx=0;entryDy=0;entryPerimeter=0;" parent="1" source="dYNqAMyxq_Kde-nmc2GR-85" target="dYNqAMyxq_Kde-nmc2GR-98" edge="1">
          <mxGeometry relative="1" as="geometry">
            <mxPoint x="765.5" y="-737.5" as="sourcePoint" />
            <mxPoint x="948.5" y="-717.5" as="targetPoint" />
          </mxGeometry>
        </mxCell>
        <mxCell id="dYNqAMyxq_Kde-nmc2GR-22" style="edgeStyle=orthogonalEdgeStyle;rounded=0;orthogonalLoop=1;jettySize=auto;html=1;entryX=0.25;entryY=0;entryDx=0;entryDy=0;jumpStyle=arc;jumpSize=0;exitX=0.588;exitY=1.031;exitDx=0;exitDy=0;exitPerimeter=0;" parent="1" source="dYNqAMyxq_Kde-nmc2GR-106" target="dYNqAMyxq_Kde-nmc2GR-107" edge="1">
          <mxGeometry relative="1" as="geometry">
            <mxPoint x="540" y="-510" as="sourcePoint" />
            <mxPoint x="538.1599999999999" y="-368.82000000000016" as="targetPoint" />
            <Array as="points">
              <mxPoint x="539" y="-437" />
            </Array>
          </mxGeometry>
        </mxCell>
        <mxCell id="dYNqAMyxq_Kde-nmc2GR-24" style="edgeStyle=orthogonalEdgeStyle;rounded=0;orthogonalLoop=1;jettySize=auto;html=1;exitX=0;exitY=1;exitDx=0;exitDy=0;entryX=0.549;entryY=0.998;entryDx=0;entryDy=0;jumpStyle=arc;entryPerimeter=0;" parent="1" edge="1" target="dYNqAMyxq_Kde-nmc2GR-137">
          <mxGeometry relative="1" as="geometry">
            <mxPoint x="631" y="-612.5" as="sourcePoint" />
            <mxPoint x="358" y="-622.5" as="targetPoint" />
            <Array as="points">
              <mxPoint x="620" y="-613" />
              <mxPoint x="620" y="-490" />
              <mxPoint x="357" y="-490" />
            </Array>
          </mxGeometry>
        </mxCell>
        <mxCell id="dYNqAMyxq_Kde-nmc2GR-26" style="edgeStyle=orthogonalEdgeStyle;rounded=0;orthogonalLoop=1;jettySize=auto;html=1;" parent="1" edge="1">
          <mxGeometry relative="1" as="geometry">
            <Array as="points">
              <mxPoint x="430" y="-680" />
              <mxPoint x="430" y="-677" />
            </Array>
            <mxPoint x="430" y="-677" as="sourcePoint" />
            <mxPoint x="413" y="-677.48" as="targetPoint" />
          </mxGeometry>
        </mxCell>
        <mxCell id="dYNqAMyxq_Kde-nmc2GR-33" style="edgeStyle=orthogonalEdgeStyle;rounded=0;orthogonalLoop=1;jettySize=auto;html=1;exitX=0.5;exitY=1;exitDx=0;exitDy=0;entryX=0.5;entryY=0;entryDx=0;entryDy=0;" parent="1" edge="1">
          <mxGeometry relative="1" as="geometry">
            <mxPoint x="966" y="-212.5" as="sourcePoint" />
          </mxGeometry>
        </mxCell>
        <mxCell id="dYNqAMyxq_Kde-nmc2GR-36" value="" style="endArrow=classic;html=1;rounded=0;entryX=0.468;entryY=-0.01;entryDx=0;entryDy=0;entryPerimeter=0;" parent="1" edge="1">
          <mxGeometry width="50" height="50" relative="1" as="geometry">
            <mxPoint x="701" y="-710" as="sourcePoint" />
            <mxPoint x="701.1999999999998" y="-672.7" as="targetPoint" />
          </mxGeometry>
        </mxCell>
        <mxCell id="dYNqAMyxq_Kde-nmc2GR-37" value="" style="endArrow=classic;html=1;rounded=0;entryX=0.5;entryY=0;entryDx=0;entryDy=0;exitX=1.001;exitY=0.728;exitDx=0;exitDy=0;exitPerimeter=0;" parent="1" source="dYNqAMyxq_Kde-nmc2GR-88" edge="1">
          <mxGeometry width="50" height="50" relative="1" as="geometry">
            <mxPoint x="770" y="-723.5" as="sourcePoint" />
            <mxPoint x="849" y="-692.5" as="targetPoint" />
            <Array as="points">
              <mxPoint x="849" y="-723.5" />
            </Array>
          </mxGeometry>
        </mxCell>
        <mxCell id="dYNqAMyxq_Kde-nmc2GR-38" value="" style="endArrow=classic;html=1;rounded=0;exitX=0;exitY=0.25;exitDx=0;exitDy=0;entryX=0.5;entryY=0;entryDx=0;entryDy=0;" parent="1" edge="1">
          <mxGeometry width="50" height="50" relative="1" as="geometry">
            <mxPoint x="590.5000000000002" y="-725" as="sourcePoint" />
            <mxPoint x="538" y="-698.5" as="targetPoint" />
            <Array as="points">
              <mxPoint x="538" y="-724.5" />
            </Array>
          </mxGeometry>
        </mxCell>
        <mxCell id="dYNqAMyxq_Kde-nmc2GR-42" style="edgeStyle=orthogonalEdgeStyle;rounded=0;orthogonalLoop=1;jettySize=auto;html=1;exitX=0.318;exitY=1.051;exitDx=0;exitDy=0;entryX=0.144;entryY=0.067;entryDx=0;entryDy=0;entryPerimeter=0;exitPerimeter=0;" parent="1" edge="1" source="dYNqAMyxq_Kde-nmc2GR-137">
          <mxGeometry relative="1" as="geometry">
            <mxPoint x="330.5" y="-622.5" as="sourcePoint" />
            <mxPoint x="330.05600000000004" y="-455.49000000000024" as="targetPoint" />
            <Array as="points">
              <mxPoint x="330" y="-607" />
            </Array>
          </mxGeometry>
        </mxCell>
        <mxCell id="dYNqAMyxq_Kde-nmc2GR-52" style="edgeStyle=orthogonalEdgeStyle;rounded=0;orthogonalLoop=1;jettySize=auto;html=1;exitX=1;exitY=0.5;exitDx=0;exitDy=0;entryX=0.25;entryY=0;entryDx=0;entryDy=0;jumpStyle=arc;" parent="1" source="dYNqAMyxq_Kde-nmc2GR-92" edge="1">
          <mxGeometry relative="1" as="geometry">
            <Array as="points">
              <mxPoint x="1010" y="-641" />
              <mxPoint x="1010" y="-633" />
              <mxPoint x="1015" y="-633" />
              <mxPoint x="1015" y="-503" />
              <mxPoint x="1075" y="-503" />
            </Array>
            <mxPoint x="910" y="-632.5" as="sourcePoint" />
            <mxPoint x="1074.4999999999995" y="-367.5" as="targetPoint" />
          </mxGeometry>
        </mxCell>
        <mxCell id="dYNqAMyxq_Kde-nmc2GR-84" value="" style="endArrow=classic;html=1;rounded=0;exitX=0.803;exitY=1.14;exitDx=0;exitDy=0;entryX=-0.024;entryY=0.039;entryDx=0;entryDy=0;jumpStyle=arc;exitPerimeter=0;entryPerimeter=0;" parent="1" source="dYNqAMyxq_Kde-nmc2GR-92" target="dYNqAMyxq_Kde-nmc2GR-133" edge="1">
          <mxGeometry width="50" height="50" relative="1" as="geometry">
            <mxPoint x="910" y="-622.5" as="sourcePoint" />
            <mxPoint x="1075" y="-605.5" as="targetPoint" />
            <Array as="points">
              <mxPoint x="938" y="-605" />
            </Array>
          </mxGeometry>
        </mxCell>
        <mxCell id="dYNqAMyxq_Kde-nmc2GR-85" value="HomeGestioneUtenteStandard" style="swimlane;fontStyle=1;align=center;verticalAlign=top;childLayout=stackLayout;horizontal=1;startSize=26;horizontalStack=0;resizeParent=1;resizeParentMax=0;resizeLast=0;collapsible=1;marginBottom=0;whiteSpace=wrap;html=1;fillColor=#F8CECC;strokeColor=#B85450;" parent="1" vertex="1">
          <mxGeometry x="595" y="-790" width="200" height="80" as="geometry" />
        </mxCell>
        <mxCell id="dYNqAMyxq_Kde-nmc2GR-87" value="" style="line;strokeWidth=1;fillColor=none;align=left;verticalAlign=middle;spacingTop=-1;spacingLeft=3;spacingRight=3;rotatable=0;labelPosition=right;points=[];portConstraint=eastwest;strokeColor=inherit;" parent="dYNqAMyxq_Kde-nmc2GR-85" vertex="1">
          <mxGeometry y="26" width="200" height="8" as="geometry" />
        </mxCell>
        <mxCell id="dYNqAMyxq_Kde-nmc2GR-88" value="+ List&amp;lt;Post&amp;gt; VisualizzaPost()&lt;br&gt;+List&amp;lt;Notifica&amp;gt;VisualizzaNotifiche()" style="text;strokeColor=none;fillColor=none;align=left;verticalAlign=top;spacingLeft=4;spacingRight=4;overflow=hidden;rotatable=0;points=[[0,0.5],[1,0.5]];portConstraint=eastwest;whiteSpace=wrap;html=1;" parent="dYNqAMyxq_Kde-nmc2GR-85" vertex="1">
          <mxGeometry y="34" width="200" height="46" as="geometry" />
        </mxCell>
        <mxCell id="dYNqAMyxq_Kde-nmc2GR-90" value="ViewProfiloPersonale" style="swimlane;fontStyle=1;align=center;verticalAlign=top;childLayout=stackLayout;horizontal=1;startSize=26;horizontalStack=0;resizeParent=1;resizeParentMax=0;resizeLast=0;collapsible=1;marginBottom=0;whiteSpace=wrap;html=1;fillColor=#F8CECC;strokeColor=#B85450;" parent="1" vertex="1">
          <mxGeometry x="785" y="-692.5" width="190" height="70" as="geometry" />
        </mxCell>
        <mxCell id="dYNqAMyxq_Kde-nmc2GR-91" value="" style="line;strokeWidth=1;fillColor=none;align=left;verticalAlign=middle;spacingTop=-1;spacingLeft=3;spacingRight=3;rotatable=0;labelPosition=right;points=[];portConstraint=eastwest;strokeColor=inherit;" parent="dYNqAMyxq_Kde-nmc2GR-90" vertex="1">
          <mxGeometry y="26" width="190" height="8" as="geometry" />
        </mxCell>
        <mxCell id="dYNqAMyxq_Kde-nmc2GR-92" value="+RimuovereAnimale(username,IdAnimale)" style="text;strokeColor=none;fillColor=none;align=left;verticalAlign=top;spacingLeft=4;spacingRight=4;overflow=hidden;rotatable=0;points=[[0,0.5],[1,0.5]];portConstraint=eastwest;whiteSpace=wrap;html=1;" parent="dYNqAMyxq_Kde-nmc2GR-90" vertex="1">
          <mxGeometry y="34" width="190" height="36" as="geometry" />
        </mxCell>
        <mxCell id="dYNqAMyxq_Kde-nmc2GR-96" value="ViewCreazionePost" style="swimlane;fontStyle=1;align=center;verticalAlign=top;childLayout=stackLayout;horizontal=1;startSize=26;horizontalStack=0;resizeParent=1;resizeParentMax=0;resizeLast=0;collapsible=1;marginBottom=0;whiteSpace=wrap;html=1;fillColor=#F8CECC;strokeColor=#B85450;" parent="1" vertex="1">
          <mxGeometry x="960" y="-790" width="200" height="80" as="geometry" />
        </mxCell>
        <mxCell id="dYNqAMyxq_Kde-nmc2GR-97" value="" style="line;strokeWidth=1;fillColor=none;align=left;verticalAlign=middle;spacingTop=-1;spacingLeft=3;spacingRight=3;rotatable=0;labelPosition=right;points=[];portConstraint=eastwest;strokeColor=inherit;" parent="dYNqAMyxq_Kde-nmc2GR-96" vertex="1">
          <mxGeometry y="26" width="200" height="8" as="geometry" />
        </mxCell>
        <mxCell id="dYNqAMyxq_Kde-nmc2GR-98" value="+CondividiPost(username,&lt;br style=&quot;border-color: var(--border-color); color: rgb(51, 51, 51); text-align: center;&quot;&gt;Post)" style="text;strokeColor=none;fillColor=none;align=left;verticalAlign=top;spacingLeft=4;spacingRight=4;overflow=hidden;rotatable=0;points=[[0,0.5],[1,0.5]];portConstraint=eastwest;whiteSpace=wrap;html=1;" parent="dYNqAMyxq_Kde-nmc2GR-96" vertex="1">
          <mxGeometry y="34" width="200" height="46" as="geometry" />
        </mxCell>
        <mxCell id="dYNqAMyxq_Kde-nmc2GR-100" value="ViewProfiloAnimalePersonale" style="swimlane;fontStyle=1;align=center;verticalAlign=top;childLayout=stackLayout;horizontal=1;startSize=26;horizontalStack=0;resizeParent=1;resizeParentMax=0;resizeLast=0;collapsible=1;marginBottom=0;whiteSpace=wrap;html=1;fillColor=#F8CECC;strokeColor=#B85450;" parent="1" vertex="1">
          <mxGeometry x="795" y="-547.5" width="180" height="80" as="geometry" />
        </mxCell>
        <mxCell id="dYNqAMyxq_Kde-nmc2GR-101" value="" style="line;strokeWidth=1;fillColor=none;align=left;verticalAlign=middle;spacingTop=-1;spacingLeft=3;spacingRight=3;rotatable=0;labelPosition=right;points=[];portConstraint=eastwest;strokeColor=inherit;" parent="dYNqAMyxq_Kde-nmc2GR-100" vertex="1">
          <mxGeometry y="26" width="180" height="8" as="geometry" />
        </mxCell>
        <mxCell id="dYNqAMyxq_Kde-nmc2GR-102" value="+EliminazionePost(username,&lt;br style=&quot;border-color: var(--border-color); color: rgb(51, 51, 51); text-align: center;&quot;&gt;IdPost)&lt;span style=&quot;color: rgb(51, 51, 51); text-align: center;&quot;&gt;&lt;br&gt;&lt;/span&gt;" style="text;strokeColor=none;fillColor=none;align=left;verticalAlign=top;spacingLeft=4;spacingRight=4;overflow=hidden;rotatable=0;points=[[0,0.5],[1,0.5]];portConstraint=eastwest;whiteSpace=wrap;html=1;" parent="dYNqAMyxq_Kde-nmc2GR-100" vertex="1">
          <mxGeometry y="34" width="180" height="46" as="geometry" />
        </mxCell>
        <mxCell id="dYNqAMyxq_Kde-nmc2GR-104" value="ViewPost" style="swimlane;fontStyle=1;align=center;verticalAlign=top;childLayout=stackLayout;horizontal=1;startSize=26;horizontalStack=0;resizeParent=1;resizeParentMax=0;resizeLast=0;collapsible=1;marginBottom=0;whiteSpace=wrap;html=1;fillColor=#F8CECC;strokeColor=#B85450;" parent="1" vertex="1">
          <mxGeometry x="433" y="-697.5" width="180" height="130" as="geometry" />
        </mxCell>
        <mxCell id="dYNqAMyxq_Kde-nmc2GR-105" value="" style="line;strokeWidth=1;fillColor=none;align=left;verticalAlign=middle;spacingTop=-1;spacingLeft=3;spacingRight=3;rotatable=0;labelPosition=right;points=[];portConstraint=eastwest;strokeColor=inherit;" parent="dYNqAMyxq_Kde-nmc2GR-104" vertex="1">
          <mxGeometry y="26" width="180" height="8" as="geometry" />
        </mxCell>
        <mxCell id="dYNqAMyxq_Kde-nmc2GR-106" value="+CreazioneCommento(username,&lt;br style=&quot;border-color: var(--border-color); color: rgb(51, 51, 51); text-align: center;&quot;&gt;&lt;span style=&quot;color: rgb(51, 51, 51); text-align: center;&quot;&gt;Commento)&lt;/span&gt;&lt;br style=&quot;border-color: var(--border-color); color: rgb(51, 51, 51); text-align: center;&quot;&gt;&lt;span style=&quot;color: rgb(51, 51, 51); text-align: center;&quot;&gt;+EliminazioneCommento(username,&lt;/span&gt;&lt;br style=&quot;border-color: var(--border-color); color: rgb(51, 51, 51); text-align: center;&quot;&gt;&lt;span style=&quot;color: rgb(51, 51, 51); text-align: center;&quot;&gt;IdCommento)&lt;/span&gt;&lt;br style=&quot;border-color: var(--border-color); color: rgb(51, 51, 51); text-align: center;&quot;&gt;&lt;span style=&quot;color: rgb(51, 51, 51); text-align: center;&quot;&gt;+ApprezzareContenuti(username,&lt;/span&gt;&lt;br style=&quot;border-color: var(--border-color); color: rgb(51, 51, 51); text-align: center;&quot;&gt;&lt;span style=&quot;color: rgb(51, 51, 51); text-align: center;&quot;&gt;IdPost)&lt;/span&gt;" style="text;strokeColor=none;fillColor=none;align=left;verticalAlign=top;spacingLeft=4;spacingRight=4;overflow=hidden;rotatable=0;points=[[0,0.5],[1,0.5]];portConstraint=eastwest;whiteSpace=wrap;html=1;" parent="dYNqAMyxq_Kde-nmc2GR-104" vertex="1">
          <mxGeometry y="34" width="180" height="96" as="geometry" />
        </mxCell>
        <mxCell id="dYNqAMyxq_Kde-nmc2GR-107" value="ViewSegnalazione&lt;br&gt;" style="swimlane;fontStyle=1;align=center;verticalAlign=top;childLayout=stackLayout;horizontal=1;startSize=26;horizontalStack=0;resizeParent=1;resizeParentMax=0;resizeLast=0;collapsible=1;marginBottom=0;whiteSpace=wrap;html=1;fillColor=#F8CECC;strokeColor=#B85450;" parent="1" vertex="1">
          <mxGeometry x="490" y="-437.5" width="180" height="100" as="geometry" />
        </mxCell>
        <mxCell id="dYNqAMyxq_Kde-nmc2GR-108" value="" style="line;strokeWidth=1;fillColor=none;align=left;verticalAlign=middle;spacingTop=-1;spacingLeft=3;spacingRight=3;rotatable=0;labelPosition=right;points=[];portConstraint=eastwest;strokeColor=inherit;" parent="dYNqAMyxq_Kde-nmc2GR-107" vertex="1">
          <mxGeometry y="26" width="180" height="8" as="geometry" />
        </mxCell>
        <mxCell id="dYNqAMyxq_Kde-nmc2GR-109" value="+SegnalarePost(username,&lt;br style=&quot;border-color: var(--border-color); color: rgb(51, 51, 51); text-align: center;&quot;&gt;&lt;span style=&quot;border-color: var(--border-color); color: rgb(51, 51, 51); text-align: center;&quot;&gt;IdPost)&lt;/span&gt;&lt;br style=&quot;border-color: var(--border-color); color: rgb(51, 51, 51); text-align: center;&quot;&gt;&lt;span style=&quot;border-color: var(--border-color); color: rgb(51, 51, 51); text-align: center;&quot;&gt;+SegnalareCommento(username, IdCommento)&lt;/span&gt;" style="text;strokeColor=none;fillColor=none;align=left;verticalAlign=top;spacingLeft=4;spacingRight=4;overflow=hidden;rotatable=0;points=[[0,0.5],[1,0.5]];portConstraint=eastwest;whiteSpace=wrap;html=1;" parent="dYNqAMyxq_Kde-nmc2GR-107" vertex="1">
          <mxGeometry y="34" width="180" height="66" as="geometry" />
        </mxCell>
        <mxCell id="dYNqAMyxq_Kde-nmc2GR-111" value="ViewAggiungiAnimale" style="swimlane;fontStyle=1;align=center;verticalAlign=top;childLayout=stackLayout;horizontal=1;startSize=26;horizontalStack=0;resizeParent=1;resizeParentMax=0;resizeLast=0;collapsible=1;marginBottom=0;whiteSpace=wrap;html=1;fillColor=#F8CECC;strokeColor=#B85450;" parent="1" vertex="1">
          <mxGeometry x="1000" y="-367.5" width="230" height="60" as="geometry" />
        </mxCell>
        <mxCell id="dYNqAMyxq_Kde-nmc2GR-112" value="" style="line;strokeWidth=1;fillColor=none;align=left;verticalAlign=middle;spacingTop=-1;spacingLeft=3;spacingRight=3;rotatable=0;labelPosition=right;points=[];portConstraint=eastwest;strokeColor=inherit;" parent="dYNqAMyxq_Kde-nmc2GR-111" vertex="1">
          <mxGeometry y="26" width="230" height="8" as="geometry" />
        </mxCell>
        <mxCell id="dYNqAMyxq_Kde-nmc2GR-113" value="+AggiungereAnimale(username,animale)" style="text;strokeColor=none;fillColor=none;align=left;verticalAlign=top;spacingLeft=4;spacingRight=4;overflow=hidden;rotatable=0;points=[[0,0.5],[1,0.5]];portConstraint=eastwest;whiteSpace=wrap;html=1;" parent="dYNqAMyxq_Kde-nmc2GR-111" vertex="1">
          <mxGeometry y="34" width="230" height="26" as="geometry" />
        </mxCell>
        <mxCell id="dYNqAMyxq_Kde-nmc2GR-117" value="ViewRicerca" style="swimlane;fontStyle=1;align=center;verticalAlign=top;childLayout=stackLayout;horizontal=1;startSize=26;horizontalStack=0;resizeParent=1;resizeParentMax=0;resizeLast=0;collapsible=1;marginBottom=0;whiteSpace=wrap;html=1;fillColor=#F8CECC;strokeColor=#B85450;" parent="1" vertex="1">
          <mxGeometry x="630" y="-672.5" width="130" height="90" as="geometry" />
        </mxCell>
        <mxCell id="dYNqAMyxq_Kde-nmc2GR-118" value="" style="line;strokeWidth=1;fillColor=none;align=left;verticalAlign=middle;spacingTop=-1;spacingLeft=3;spacingRight=3;rotatable=0;labelPosition=right;points=[];portConstraint=eastwest;strokeColor=inherit;" parent="dYNqAMyxq_Kde-nmc2GR-117" vertex="1">
          <mxGeometry y="26" width="130" height="8" as="geometry" />
        </mxCell>
        <mxCell id="dYNqAMyxq_Kde-nmc2GR-119" value="+ List&amp;lt;UtenteStandard&amp;gt; Ricerca(username)" style="text;strokeColor=none;fillColor=none;align=left;verticalAlign=top;spacingLeft=4;spacingRight=4;overflow=hidden;rotatable=0;points=[[0,0.5],[1,0.5]];portConstraint=eastwest;whiteSpace=wrap;html=1;" parent="dYNqAMyxq_Kde-nmc2GR-117" vertex="1">
          <mxGeometry y="34" width="130" height="56" as="geometry" />
        </mxCell>
        <mxCell id="dYNqAMyxq_Kde-nmc2GR-120" value="ViewRicercaAvanzata" style="swimlane;fontStyle=1;align=center;verticalAlign=top;childLayout=stackLayout;horizontal=1;startSize=26;horizontalStack=0;resizeParent=1;resizeParentMax=0;resizeLast=0;collapsible=1;marginBottom=0;whiteSpace=wrap;html=1;fillColor=#F8CECC;strokeColor=#B85450;" parent="1" vertex="1">
          <mxGeometry x="630" y="-567.5" width="155" height="100" as="geometry" />
        </mxCell>
        <mxCell id="dYNqAMyxq_Kde-nmc2GR-121" value="" style="line;strokeWidth=1;fillColor=none;align=left;verticalAlign=middle;spacingTop=-1;spacingLeft=3;spacingRight=3;rotatable=0;labelPosition=right;points=[];portConstraint=eastwest;strokeColor=inherit;" parent="dYNqAMyxq_Kde-nmc2GR-120" vertex="1">
          <mxGeometry y="26" width="155" height="8" as="geometry" />
        </mxCell>
        <mxCell id="dYNqAMyxq_Kde-nmc2GR-122" value="+List&amp;lt;UtenteStandard&amp;gt;&lt;br&gt;Ricerca(username, zona, tipoProfilo, specie, professione)" style="text;strokeColor=none;fillColor=none;align=left;verticalAlign=top;spacingLeft=4;spacingRight=4;overflow=hidden;rotatable=0;points=[[0,0.5],[1,0.5]];portConstraint=eastwest;whiteSpace=wrap;html=1;" parent="dYNqAMyxq_Kde-nmc2GR-120" vertex="1">
          <mxGeometry y="34" width="155" height="66" as="geometry" />
        </mxCell>
        <mxCell id="dYNqAMyxq_Kde-nmc2GR-123" value="ViewModificaAnimale" style="swimlane;fontStyle=1;align=center;verticalAlign=top;childLayout=stackLayout;horizontal=1;startSize=26;horizontalStack=0;resizeParent=1;resizeParentMax=0;resizeLast=0;collapsible=1;marginBottom=0;whiteSpace=wrap;html=1;fillColor=#F8CECC;strokeColor=#B85450;" parent="1" vertex="1">
          <mxGeometry x="795" y="-377.5" width="180" height="70" as="geometry" />
        </mxCell>
        <mxCell id="dYNqAMyxq_Kde-nmc2GR-124" value="" style="line;strokeWidth=1;fillColor=none;align=left;verticalAlign=middle;spacingTop=-1;spacingLeft=3;spacingRight=3;rotatable=0;labelPosition=right;points=[];portConstraint=eastwest;strokeColor=inherit;" parent="dYNqAMyxq_Kde-nmc2GR-123" vertex="1">
          <mxGeometry y="26" width="180" height="8" as="geometry" />
        </mxCell>
        <mxCell id="dYNqAMyxq_Kde-nmc2GR-125" value="&lt;span style=&quot;color: rgb(51, 51, 51); text-align: center;&quot;&gt;+ModificaProfiloAnimale(username,IdAnimale,&lt;/span&gt;&lt;br style=&quot;border-color: var(--border-color); color: rgb(51, 51, 51); text-align: center;&quot;&gt;&lt;span style=&quot;color: rgb(51, 51, 51); text-align: center;&quot;&gt;Animale)&lt;/span&gt;&lt;span style=&quot;color: rgb(51, 51, 51); text-align: center;&quot;&gt;&lt;br&gt;&lt;/span&gt;" style="text;strokeColor=none;fillColor=none;align=left;verticalAlign=top;spacingLeft=4;spacingRight=4;overflow=hidden;rotatable=0;points=[[0,0.5],[1,0.5]];portConstraint=eastwest;whiteSpace=wrap;html=1;" parent="dYNqAMyxq_Kde-nmc2GR-123" vertex="1">
          <mxGeometry y="34" width="180" height="36" as="geometry" />
        </mxCell>
        <mxCell id="dYNqAMyxq_Kde-nmc2GR-127" value="" style="endArrow=classic;html=1;rounded=0;entryX=0.5;entryY=0;entryDx=0;entryDy=0;exitX=0.5;exitY=0.971;exitDx=0;exitDy=0;exitPerimeter=0;" parent="1" source="dYNqAMyxq_Kde-nmc2GR-102" target="dYNqAMyxq_Kde-nmc2GR-123" edge="1">
          <mxGeometry width="50" height="50" relative="1" as="geometry">
            <mxPoint x="711" y="-700" as="sourcePoint" />
            <mxPoint x="711" y="-663" as="targetPoint" />
          </mxGeometry>
        </mxCell>
        <mxCell id="dYNqAMyxq_Kde-nmc2GR-128" value="" style="endArrow=classic;html=1;rounded=0;entryX=0.432;entryY=-0.003;entryDx=0;entryDy=0;entryPerimeter=0;exitX=0.51;exitY=1.027;exitDx=0;exitDy=0;exitPerimeter=0;" parent="1" source="dYNqAMyxq_Kde-nmc2GR-119" target="dYNqAMyxq_Kde-nmc2GR-120" edge="1">
          <mxGeometry width="50" height="50" relative="1" as="geometry">
            <mxPoint x="711" y="-700" as="sourcePoint" />
            <mxPoint x="711.1999999999998" y="-662.7" as="targetPoint" />
          </mxGeometry>
        </mxCell>
        <mxCell id="dYNqAMyxq_Kde-nmc2GR-130" value="" style="endArrow=classic;html=1;rounded=0;entryX=0.5;entryY=0;entryDx=0;entryDy=0;exitX=0.531;exitY=1.053;exitDx=0;exitDy=0;exitPerimeter=0;" parent="1" source="dYNqAMyxq_Kde-nmc2GR-92" target="dYNqAMyxq_Kde-nmc2GR-100" edge="1">
          <mxGeometry width="50" height="50" relative="1" as="geometry">
            <mxPoint x="711" y="-700" as="sourcePoint" />
            <mxPoint x="711.1999999999998" y="-662.7" as="targetPoint" />
          </mxGeometry>
        </mxCell>
        <mxCell id="dYNqAMyxq_Kde-nmc2GR-131" value="ViewProfiloPersonale" style="swimlane;fontStyle=1;align=center;verticalAlign=top;childLayout=stackLayout;horizontal=1;startSize=26;horizontalStack=0;resizeParent=1;resizeParentMax=0;resizeLast=0;collapsible=1;marginBottom=0;whiteSpace=wrap;html=1;fillColor=#F8CECC;strokeColor=#B85450;" parent="1" vertex="1">
          <mxGeometry x="1060" y="-640" width="190" height="70" as="geometry" />
        </mxCell>
        <mxCell id="dYNqAMyxq_Kde-nmc2GR-132" value="" style="line;strokeWidth=1;fillColor=none;align=left;verticalAlign=middle;spacingTop=-1;spacingLeft=3;spacingRight=3;rotatable=0;labelPosition=right;points=[];portConstraint=eastwest;strokeColor=inherit;" parent="dYNqAMyxq_Kde-nmc2GR-131" vertex="1">
          <mxGeometry y="26" width="190" height="8" as="geometry" />
        </mxCell>
        <mxCell id="dYNqAMyxq_Kde-nmc2GR-133" value="+ModificaProfilo(username,profilo)" style="text;strokeColor=none;fillColor=none;align=left;verticalAlign=top;spacingLeft=4;spacingRight=4;overflow=hidden;rotatable=0;points=[[0,0.5],[1,0.5]];portConstraint=eastwest;whiteSpace=wrap;html=1;" parent="dYNqAMyxq_Kde-nmc2GR-131" vertex="1">
          <mxGeometry y="34" width="190" height="36" as="geometry" />
        </mxCell>
        <mxCell id="dYNqAMyxq_Kde-nmc2GR-135" value="ViewProfilo" style="swimlane;fontStyle=1;align=center;verticalAlign=top;childLayout=stackLayout;horizontal=1;startSize=26;horizontalStack=0;resizeParent=1;resizeParentMax=0;resizeLast=0;collapsible=1;marginBottom=0;whiteSpace=wrap;html=1;fillColor=#F8CECC;strokeColor=#B85450;" parent="1" vertex="1">
          <mxGeometry x="290" y="-710" width="122.5" height="100" as="geometry" />
        </mxCell>
        <mxCell id="dYNqAMyxq_Kde-nmc2GR-136" value="" style="line;strokeWidth=1;fillColor=none;align=left;verticalAlign=middle;spacingTop=-1;spacingLeft=3;spacingRight=3;rotatable=0;labelPosition=right;points=[];portConstraint=eastwest;strokeColor=inherit;" parent="dYNqAMyxq_Kde-nmc2GR-135" vertex="1">
          <mxGeometry y="26" width="122.5" height="8" as="geometry" />
        </mxCell>
        <mxCell id="dYNqAMyxq_Kde-nmc2GR-137" value="+List&amp;lt;Animale&amp;gt;&lt;br&gt;VisualizzaAnimali()&lt;br&gt;+ List&amp;lt;Post&amp;gt; VisualizzaPost()&lt;span style=&quot;color: rgb(51, 51, 51); text-align: center;&quot;&gt;&lt;br&gt;&lt;/span&gt;" style="text;strokeColor=none;fillColor=none;align=left;verticalAlign=top;spacingLeft=4;spacingRight=4;overflow=hidden;rotatable=0;points=[[0,0.5],[1,0.5]];portConstraint=eastwest;whiteSpace=wrap;html=1;" parent="dYNqAMyxq_Kde-nmc2GR-135" vertex="1">
          <mxGeometry y="34" width="122.5" height="66" as="geometry" />
        </mxCell>
        <mxCell id="dYNqAMyxq_Kde-nmc2GR-138" value="ViewProfiloAnimale" style="swimlane;fontStyle=1;align=center;verticalAlign=top;childLayout=stackLayout;horizontal=1;startSize=26;horizontalStack=0;resizeParent=1;resizeParentMax=0;resizeLast=0;collapsible=1;marginBottom=0;whiteSpace=wrap;html=1;fillColor=#F8CECC;strokeColor=#B85450;" parent="1" vertex="1">
          <mxGeometry x="300" y="-457.5" width="122.5" height="70" as="geometry" />
        </mxCell>
        <mxCell id="dYNqAMyxq_Kde-nmc2GR-139" value="" style="line;strokeWidth=1;fillColor=none;align=left;verticalAlign=middle;spacingTop=-1;spacingLeft=3;spacingRight=3;rotatable=0;labelPosition=right;points=[];portConstraint=eastwest;strokeColor=inherit;" parent="dYNqAMyxq_Kde-nmc2GR-138" vertex="1">
          <mxGeometry y="26" width="122.5" height="8" as="geometry" />
        </mxCell>
        <mxCell id="dYNqAMyxq_Kde-nmc2GR-140" value="+ List&amp;lt;Post&amp;gt; VisualizzaPost()&lt;span style=&quot;color: rgb(51, 51, 51); text-align: center;&quot;&gt;&lt;br&gt;&lt;/span&gt;" style="text;strokeColor=none;fillColor=none;align=left;verticalAlign=top;spacingLeft=4;spacingRight=4;overflow=hidden;rotatable=0;points=[[0,0.5],[1,0.5]];portConstraint=eastwest;whiteSpace=wrap;html=1;" parent="dYNqAMyxq_Kde-nmc2GR-138" vertex="1">
          <mxGeometry y="34" width="122.5" height="36" as="geometry" />
        </mxCell>
        <mxCell id="dYNqAMyxq_Kde-nmc2GR-144" value="HomeGestioneProfessionista" style="swimlane;fontStyle=1;align=center;verticalAlign=top;childLayout=stackLayout;horizontal=1;startSize=26;horizontalStack=0;resizeParent=1;resizeParentMax=0;resizeLast=0;collapsible=1;marginBottom=0;whiteSpace=wrap;html=1;fillColor=#F8CECC;strokeColor=#B85450;" parent="1" vertex="1">
          <mxGeometry x="695" y="-1070" width="200" height="80" as="geometry" />
        </mxCell>
        <mxCell id="dYNqAMyxq_Kde-nmc2GR-145" value="" style="line;strokeWidth=1;fillColor=none;align=left;verticalAlign=middle;spacingTop=-1;spacingLeft=3;spacingRight=3;rotatable=0;labelPosition=right;points=[];portConstraint=eastwest;strokeColor=inherit;" parent="dYNqAMyxq_Kde-nmc2GR-144" vertex="1">
          <mxGeometry y="26" width="200" height="8" as="geometry" />
        </mxCell>
        <mxCell id="dYNqAMyxq_Kde-nmc2GR-146" value="+ List&amp;lt;Post&amp;gt; VisualizzaPost()&lt;br&gt;+List&amp;lt;Notifica&amp;gt;VisualizzaNotifiche()" style="text;strokeColor=none;fillColor=none;align=left;verticalAlign=top;spacingLeft=4;spacingRight=4;overflow=hidden;rotatable=0;points=[[0,0.5],[1,0.5]];portConstraint=eastwest;whiteSpace=wrap;html=1;" parent="dYNqAMyxq_Kde-nmc2GR-144" vertex="1">
          <mxGeometry y="34" width="200" height="46" as="geometry" />
        </mxCell>
        <mxCell id="dYNqAMyxq_Kde-nmc2GR-147" value="ViewCreazionePropost" style="swimlane;fontStyle=1;align=center;verticalAlign=top;childLayout=stackLayout;horizontal=1;startSize=26;horizontalStack=0;resizeParent=1;resizeParentMax=0;resizeLast=0;collapsible=1;marginBottom=0;whiteSpace=wrap;html=1;fillColor=#F8CECC;strokeColor=#B85450;" parent="1" vertex="1">
          <mxGeometry x="835" y="-970" width="190" height="80" as="geometry" />
        </mxCell>
        <mxCell id="dYNqAMyxq_Kde-nmc2GR-148" value="" style="line;strokeWidth=1;fillColor=none;align=left;verticalAlign=middle;spacingTop=-1;spacingLeft=3;spacingRight=3;rotatable=0;labelPosition=right;points=[];portConstraint=eastwest;strokeColor=inherit;" parent="dYNqAMyxq_Kde-nmc2GR-147" vertex="1">
          <mxGeometry y="26" width="190" height="8" as="geometry" />
        </mxCell>
        <mxCell id="dYNqAMyxq_Kde-nmc2GR-149" value="+CreazioneProPost(username, ProPost)" style="text;strokeColor=none;fillColor=none;align=left;verticalAlign=top;spacingLeft=4;spacingRight=4;overflow=hidden;rotatable=0;points=[[0,0.5],[1,0.5]];portConstraint=eastwest;whiteSpace=wrap;html=1;" parent="dYNqAMyxq_Kde-nmc2GR-147" vertex="1">
          <mxGeometry y="34" width="190" height="46" as="geometry" />
        </mxCell>
        <mxCell id="dYNqAMyxq_Kde-nmc2GR-150" value="ViewModificaProfiloProfessionista" style="swimlane;fontStyle=1;align=center;verticalAlign=top;childLayout=stackLayout;horizontal=1;startSize=26;horizontalStack=0;resizeParent=1;resizeParentMax=0;resizeLast=0;collapsible=1;marginBottom=0;whiteSpace=wrap;html=1;fillColor=#F8CECC;strokeColor=#B85450;" parent="1" vertex="1">
          <mxGeometry x="565" y="-970" width="200" height="80" as="geometry" />
        </mxCell>
        <mxCell id="dYNqAMyxq_Kde-nmc2GR-151" value="" style="line;strokeWidth=1;fillColor=none;align=left;verticalAlign=middle;spacingTop=-1;spacingLeft=3;spacingRight=3;rotatable=0;labelPosition=right;points=[];portConstraint=eastwest;strokeColor=inherit;" parent="dYNqAMyxq_Kde-nmc2GR-150" vertex="1">
          <mxGeometry y="26" width="200" height="8" as="geometry" />
        </mxCell>
        <mxCell id="dYNqAMyxq_Kde-nmc2GR-152" value="+CreazioneProPost(username, ProPost)" style="text;strokeColor=none;fillColor=none;align=left;verticalAlign=top;spacingLeft=4;spacingRight=4;overflow=hidden;rotatable=0;points=[[0,0.5],[1,0.5]];portConstraint=eastwest;whiteSpace=wrap;html=1;" parent="dYNqAMyxq_Kde-nmc2GR-150" vertex="1">
          <mxGeometry y="34" width="200" height="46" as="geometry" />
        </mxCell>
        <mxCell id="dYNqAMyxq_Kde-nmc2GR-153" value="" style="endArrow=classic;html=1;rounded=0;exitX=0;exitY=0.25;exitDx=0;exitDy=0;entryX=0.5;entryY=0;entryDx=0;entryDy=0;" parent="1" edge="1">
          <mxGeometry width="50" height="50" relative="1" as="geometry">
            <mxPoint x="695.0000000000002" y="-998" as="sourcePoint" />
            <mxPoint x="642.5" y="-971.5" as="targetPoint" />
            <Array as="points">
              <mxPoint x="642.5" y="-997.5" />
            </Array>
          </mxGeometry>
        </mxCell>
        <mxCell id="dYNqAMyxq_Kde-nmc2GR-154" value="" style="endArrow=classic;html=1;rounded=0;entryX=0.5;entryY=0;entryDx=0;entryDy=0;" parent="1" target="dYNqAMyxq_Kde-nmc2GR-147" edge="1">
          <mxGeometry width="50" height="50" relative="1" as="geometry">
            <mxPoint x="900" y="-1010" as="sourcePoint" />
            <mxPoint x="652.5" y="-961.5" as="targetPoint" />
            <Array as="points">
              <mxPoint x="930" y="-1010" />
            </Array>
          </mxGeometry>
        </mxCell>
        <mxCell id="dYNqAMyxq_Kde-nmc2GR-155" style="edgeStyle=orthogonalEdgeStyle;rounded=0;orthogonalLoop=1;jettySize=auto;html=1;exitX=0.5;exitY=0;exitDx=0;exitDy=0;entryX=0.5;entryY=0;entryDx=0;entryDy=0;" parent="1" source="dYNqAMyxq_Kde-nmc2GR-144" target="dYNqAMyxq_Kde-nmc2GR-85" edge="1">
          <mxGeometry relative="1" as="geometry">
            <mxPoint x="741.48" y="-1180" as="sourcePoint" />
            <mxPoint x="907.48" y="-1170" as="targetPoint" />
            <Array as="points">
              <mxPoint x="795" y="-1120" />
              <mxPoint x="460" y="-1120" />
              <mxPoint x="460" y="-840" />
              <mxPoint x="695" y="-840" />
            </Array>
          </mxGeometry>
        </mxCell>
      </root>
    </mxGraphModel>
  </diagram>
</mxfile>
